<?xml version="1.0" encoding="utf-8"?>
<!-- Generator: Adobe Illustrator 19.2.1, SVG Export Plug-In . SVG Version: 6.00 Build 0)  -->
<svg version="1.1" id="Layer_1" xmlns="http://www.w3.org/2000/svg" xmlns:xlink="http://www.w3.org/1999/xlink" x="0px" y="0px"
	 viewBox="0 0 446.1 125.2" style="enable-background:new 0 0 446.1 125.2;" xml:space="preserve">
<style type="text/css">
	.st0{clip-path:url(#SVGID_2_);fill:#BF7F31;}
	.st1{clip-path:url(#SVGID_2_);fill:#FFAF3E;}
	.st2{clip-path:url(#SVGID_2_);fill:#AB5153;}
	.st3{clip-path:url(#SVGID_2_);fill:#EC5A4F;}
	.st4{clip-path:url(#SVGID_2_);fill:#333333;}
</style>
<g>
	<defs>
		<rect id="SVGID_1_" width="446.1" height="125.2"/>
	</defs>
	<clipPath id="SVGID_2_">
		<use xlink:href="#SVGID_1_"  style="overflow:visible;"/>
	</clipPath>
	<path class="st0" d="M63.3,33.1c-15-12.2-25.9-22.6-42.8-16.1c-0.4,0.2-0.9,0.3-1.4,0.5C7.8,28.4,0.7,43.4,0,60.1
		c10-1.7,20-4.5,28.7-8.2C40.6,46.8,53.5,38.9,63.3,33.1"/>
	<path class="st1" d="M63.3,33.1c9.4,7.6,20.4,15.9,35.5,21.2c8.9,3.2,17.9,5.1,26.4,6C123.9,26.8,96.4,0,62.5,0
		C45.7,0,30.3,6.7,19.1,17.6c0.5-0.2,0.9-0.3,1.4-0.5C37.4,10.5,48.2,20.9,63.3,33.1"/>
	<path class="st2" d="M61.8,92.1c15,12.2,25.9,22.6,42.8,16.1c0.4-0.2,0.9-0.3,1.4-0.5c11.2-10.9,18.4-25.9,19.1-42.6
		c-10,1.7-20.1,4.5-28.7,8.2C84.5,78.4,71.6,86.4,61.8,92.1"/>
	<path class="st3" d="M61.8,92.1c-9.4-7.6-20.4-15.9-35.5-21.2c-8.9-3.2-17.9-5.1-26.4-6c1.2,33.5,28.7,60.3,62.6,60.3
		c16.9,0,32.2-6.7,43.5-17.6c-0.5,0.2-0.9,0.3-1.4,0.5C87.7,114.7,76.9,104.3,61.8,92.1"/>
	<path class="st4" d="M145.5,39.8h8.3V43c1.5-1.4,4.6-4.5,10.3-4.5c3.2,0,8.2,1.4,11.3,5.2c3.5,4.1,3.5,10.4,3.5,13.3v20.3h-9V58.8
		c0-3.1,0-12-7.6-12c-1.6,0-4.5,0.8-6.2,3.3c-1.6,2.3-1.6,6.2-1.6,9.4v17.9h-9V39.8z"/>
	<path class="st4" d="M190.8,62.6c0.4,2.4,3.9,7.7,10.4,7.7c4,0,7-1.7,8.7-4.8h9.5c-2.2,6.8-9.3,13.1-18.1,13.1
		c-11.4,0-19.8-8.9-19.8-19.9c0-10.6,7.9-20.2,19.8-20.2c12.3,0,19.4,10.1,19.4,19.6c0,1.8-0.3,3.3-0.5,4.5H190.8z M211.3,55.4
		c-1-6-5.3-8.6-10.2-8.6c-3.7,0-8.9,1.6-10.6,8.6H211.3z"/>
	<path class="st4" d="M261.8,77.4h-8.3v-4.7c-2.8,3.4-8.4,5.9-13.1,5.9c-9.7,0-18.3-7.7-18.3-20.2c0-11.5,8.4-19.8,18.8-19.8
		c7.6,0,12.2,5.5,12.5,6h0.1v-4.7h8.3V77.4z M242.3,46.8c-7.4,0-11.2,6.4-11.2,12c0,6.4,4.7,11.6,11.2,11.6c6.2,0,11-4.9,11-11.8
		C253.3,50.7,247.6,46.8,242.3,46.8"/>
	<path class="st4" d="M265.2,39.8h8.3v3.3h0.1c1.7-2.4,3.4-4.6,8.1-4.6h0.7v8.7c-8.2,0.3-8.2,6.8-8.2,9v21.1h-9V39.8z"/>
	<path class="st4" d="M300,50c-0.6-3-2.6-3.2-3.6-3.2c-2.2,0-3.5,1.7-3.5,3.2c0,2.2,1.6,2.6,6.4,4.2c4.7,1.4,10.5,3.7,10.5,11.2
		c0,8.5-6.7,13.1-13.1,13.1c-3.7,0-8.3-1.3-11.2-4.9c-2.3-2.8-2.6-5.8-2.8-8.1h9.2c0.4,1.7,1.2,4.8,4.9,4.8c2.9,0,4.1-2.2,4.1-3.8
		c0-2.8-2-3.5-8.5-5.6c-4.3-1.4-8.4-4.6-8.4-10.8c0-7.3,6.6-11.6,12.6-11.6c5.6,0,11.9,4.1,12.3,11.5H300z"/>
	<path class="st4" d="M312.2,27.3h9v15.2c1.2-1.1,4.1-3.9,9.8-3.9c4.2,0,8.9,2.3,11.6,5.8c3,3.8,3,9.1,3,11.9v21.2h-9V58.1
		c0-4.1-0.3-11.4-7.7-11.4c-7.6,0-7.6,8.3-7.6,11.5v19.1h-9V27.3z"/>
	<path class="st4" d="M348,58.6c0-11.4,9.3-20.1,20-20.1c10.6,0,19.9,8.5,19.9,20c0,12.3-9.5,20.1-19.9,20.1
		C356.8,78.6,348,69.4,348,58.6 M378.9,58.7c0-6.8-5.3-11.9-10.9-11.9c-4.7,0-11,4-11,11.8c0,7.1,5.3,11.7,11,11.7
		C374.6,70.3,378.9,64.6,378.9,58.7"/>
	<path class="st4" d="M390.3,39.8h8.3v3.3h0.1c1.7-2.4,3.4-4.6,8.1-4.6h0.7v8.7c-8.2,0.3-8.2,6.8-8.2,9v21.1h-9V39.8z"/>
	<path class="st4" d="M416.4,62.6c0.4,2.4,3.9,7.7,10.4,7.7c4,0,7-1.7,8.7-4.8h9.5c-2.2,6.8-9.3,13.1-18.1,13.1
		c-11.4,0-19.8-8.9-19.8-19.9c0-10.6,7.9-20.2,19.8-20.2c12.3,0,19.4,10.1,19.4,19.6c0,1.8-0.3,3.3-0.5,4.5H416.4z M436.9,55.4
		c-1-6-5.3-8.6-10.2-8.6c-3.7,0-8.9,1.6-10.6,8.6H436.9z"/>
	<polygon class="st4" points="312,97 310.3,97 310.3,93.9 312,93.9 312,89 315.5,89 315.5,93.9 317.6,93.9 317.6,97 315.5,97 
		315.5,108.5 312,108.5 	"/>
	<path class="st4" d="M321.2,102.8c0.2,0.9,1.5,3,4,3c1.6,0,2.7-0.7,3.4-1.9h3.7c-0.8,2.6-3.6,5.1-7.1,5.1c-4.4,0-7.7-3.5-7.7-7.7
		c0-4.1,3.1-7.8,7.7-7.8c4.8,0,7.6,3.9,7.6,7.6c0,0.7-0.1,1.3-0.2,1.8H321.2z M329.2,100c-0.4-2.3-2.1-3.3-4-3.3
		c-1.4,0-3.5,0.6-4.1,3.3H329.2z"/>
	<path class="st4" d="M348.4,103.8c-1.2,3.3-3.9,5.2-7.3,5.2c-3.7,0-7.8-3-7.8-7.8c0-4.5,3.7-7.7,7.7-7.7c1.8,0,5.8,0.8,7.3,5.3
		h-3.9c-0.4-0.7-1.2-2.1-3.4-2.1c-2.1,0-4.2,1.6-4.2,4.6c0,2.5,1.8,4.6,4.4,4.6c1.2,0,2.3-0.6,3.2-2H348.4z"/>
	<path class="st4" d="M349.6,89h3.5v5.9c0.4-0.4,1.6-1.5,3.8-1.5c1.6,0,3.4,0.9,4.5,2.2c1.2,1.5,1.2,3.6,1.2,4.6v8.2h-3.5V101
		c0-1.6-0.1-4.4-3-4.4c-2.9,0-2.9,3.2-2.9,4.5v7.4h-3.5V89z"/>
	<path class="st4" d="M363.8,93.9h3.2v1.3c0.6-0.6,1.8-1.8,4-1.8c1.3,0,3.2,0.6,4.4,2c1.3,1.6,1.3,4.1,1.3,5.2v7.9h-3.5v-7.2
		c0-1.2,0-4.7-2.9-4.7c-0.6,0-1.8,0.3-2.4,1.3c-0.6,0.9-0.6,2.4-0.6,3.7v6.9h-3.5V93.9z"/>
	<path class="st4" d="M377.7,101.2c0-4.4,3.6-7.8,7.8-7.8c4.1,0,7.7,3.3,7.7,7.8c0,4.8-3.7,7.8-7.7,7.8
		C381.1,109,377.7,105.4,377.7,101.2 M389.7,101.3c0-2.7-2.1-4.6-4.2-4.6c-1.8,0-4.3,1.6-4.3,4.6c0,2.8,2.1,4.6,4.3,4.6
		C388,105.8,389.7,103.6,389.7,101.3"/>
	<rect x="394.2" y="89" class="st4" width="3.5" height="19.5"/>
	<path class="st4" d="M398.7,101.2c0-4.4,3.6-7.8,7.8-7.8c4.1,0,7.7,3.3,7.7,7.8c0,4.8-3.7,7.8-7.7,7.8
		C402.2,109,398.7,105.4,398.7,101.2 M410.8,101.3c0-2.7-2.1-4.6-4.2-4.6c-1.8,0-4.3,1.6-4.3,4.6c0,2.8,2.1,4.6,4.3,4.6
		C409.1,105.8,410.8,103.6,410.8,101.3"/>
	<path class="st4" d="M430.5,93.9v11.9c0,7-5.2,8.6-8,8.6c-3,0-6.1-1.6-7.3-4.8h4c1.4,1.6,3.1,1.6,3.6,1.6c2,0,4.3-1.4,4.5-4.6
		l-0.1-0.1c-0.5,0.7-1.8,2.3-4.8,2.3c-3.6,0-7.5-3-7.5-7.9c0-4.6,3.7-7.7,7.5-7.7c3,0,4.3,1.7,4.7,2.3h0.1v-1.8H430.5z M422.7,96.6
		c-2.1,0-4.3,1.7-4.3,4.5c0,3,2.2,4.7,4.4,4.7c2.1,0,4.2-1.8,4.2-4.7C427,99,425.3,96.6,422.7,96.6"/>
	<polygon class="st4" points="436.7,107.2 431.3,93.9 435.3,93.9 438.6,103.3 442.2,93.9 446.1,93.9 437.7,113.4 434,113.4 	"/>
</g>
</svg>
